<svg width="37" height="34" viewBox="0 0 37 34" fill="none" xmlns="http://www.w3.org/2000/svg">
<path d="M15.1475 0.302294L2.15884 5.87078C1.28805 6.25149 0.603972 6.95379 0.253992 7.82639C-0.0959879 8.69899 -0.0838641 9.67204 0.287752 10.5359L9.22539 31.8135C9.40363 32.2456 9.66763 32.6383 10.0019 32.9686C10.3362 33.299 10.7341 33.5604 11.1722 33.7374C11.6104 33.9145 12.08 34.0037 12.5536 33.9999C13.0272 33.996 13.4953 33.8992 13.9304 33.715L26.9045 28.1519C27.7779 27.7724 28.4648 27.07 28.8169 26.1962C29.169 25.3224 29.1581 24.3473 28.7865 23.4813L19.8488 2.20556C19.6707 1.77377 19.407 1.38127 19.073 1.05102C18.7391 0.720772 18.3416 0.4594 17.9039 0.282187C17.4661 0.104974 16.9969 0.015477 16.5236 0.0189295C16.0503 0.022382 15.5825 0.118715 15.1475 0.302294Z" fill="white"/>
<path d="M25.4148 1.79358e-07C26.3314 -0.000285453 27.2142 0.340596 27.8863 0.95431C28.5584 1.56802 28.9701 2.40921 29.0389 3.30925L29.0479 3.57757V9.83831C29.0474 10.2942 28.8701 10.7328 28.5523 11.0643C28.2344 11.3958 27.8 11.5953 27.3378 11.622C26.8756 11.6487 26.4205 11.5007 26.0654 11.208C25.7103 10.9154 25.4822 10.5003 25.4275 10.0476L25.4148 9.83831V3.57757H23.5982C23.1352 3.57706 22.6898 3.40248 22.3531 3.0895C22.0165 2.77652 21.8138 2.34876 21.7867 1.89361C21.7596 1.43847 21.91 0.990307 22.2071 0.640684C22.5043 0.291061 22.9259 0.0663705 23.3856 0.0125216L23.5982 1.79358e-07H25.4148Z" fill="white"/>
<path d="M31.0098 4.66871C31.198 4.23249 31.5543 3.88764 32.0005 3.70988C32.4467 3.53213 32.9462 3.536 33.3895 3.72066C33.8564 3.91384 34.3069 4.0963 34.7865 4.28233C35.6291 4.63453 36.3056 5.28692 36.6808 6.10906C37.056 6.93119 37.1022 7.86249 36.8102 8.71673L36.7084 8.97789L32.5339 18.5908C32.3502 19.008 32.0121 19.3407 31.5882 19.5212C31.1643 19.7016 30.6865 19.7164 30.252 19.5624C29.8174 19.4083 29.4588 19.0971 29.249 18.6921C29.0391 18.287 28.9939 17.8184 29.1224 17.3816L29.195 17.1848L33.3659 7.57727L32.701 7.31253L31.9708 7.01381C31.751 6.92206 31.5517 6.78856 31.3843 6.62093C31.217 6.4533 31.0848 6.25483 30.9954 6.03687C30.906 5.81891 30.861 5.58573 30.8632 5.35066C30.8654 5.11559 30.9146 4.88325 31.008 4.66692L31.0098 4.66871Z" fill="white"/>
<path d="M15.1475 0.302294L2.15884 5.87078C1.28805 6.25149 0.603972 6.95379 0.253992 7.82639C-0.0959879 8.69899 -0.0838641 9.67204 0.287752 10.5359L9.22539 31.8135C9.40363 32.2456 9.66763 32.6383 10.0019 32.9686C10.3362 33.299 10.7341 33.5604 11.1722 33.7374C11.6104 33.9145 12.08 34.0037 12.5536 33.9999C13.0272 33.996 13.4953 33.8992 13.9304 33.715L26.9045 28.1519C27.7779 27.7724 28.4648 27.07 28.8169 26.1962C29.169 25.3224 29.1581 24.3473 28.7865 23.4813L19.8488 2.20556C19.6707 1.77377 19.407 1.38127 19.073 1.05102C18.7391 0.720772 18.3416 0.4594 17.9039 0.282187C17.4661 0.104974 16.9969 0.015477 16.5236 0.0189295C16.0503 0.022382 15.5825 0.118715 15.1475 0.302294Z" stroke="#1D1D1D"/>
<path d="M25.4148 1.79358e-07C26.3314 -0.000285453 27.2142 0.340596 27.8863 0.95431C28.5584 1.56802 28.9701 2.40921 29.0389 3.30925L29.0479 3.57757V9.83831C29.0474 10.2942 28.8701 10.7328 28.5523 11.0643C28.2344 11.3958 27.8 11.5953 27.3378 11.622C26.8756 11.6487 26.4205 11.5007 26.0654 11.208C25.7103 10.9154 25.4822 10.5003 25.4275 10.0476L25.4148 9.83831V3.57757H23.5982C23.1352 3.57706 22.6898 3.40248 22.3531 3.0895C22.0165 2.77652 21.8138 2.34876 21.7867 1.89361C21.7596 1.43847 21.91 0.990307 22.2071 0.640684C22.5043 0.291061 22.9259 0.0663705 23.3856 0.0125216L23.5982 1.79358e-07H25.4148Z" stroke="#1D1D1D"/>
<path d="M31.0098 4.66871C31.198 4.23249 31.5543 3.88764 32.0005 3.70988C32.4467 3.53213 32.9462 3.536 33.3895 3.72066C33.8564 3.91384 34.3069 4.0963 34.7865 4.28233C35.6291 4.63453 36.3056 5.28692 36.6808 6.10906C37.056 6.93119 37.1022 7.86249 36.8102 8.71673L36.7084 8.97789L32.5339 18.5908C32.3502 19.008 32.0121 19.3407 31.5882 19.5212C31.1643 19.7016 30.6865 19.7164 30.252 19.5624C29.8174 19.4083 29.4588 19.0971 29.249 18.6921C29.0391 18.287 28.9939 17.8184 29.1224 17.3816L29.195 17.1848L33.3659 7.57727L32.701 7.31253L31.9708 7.01381C31.751 6.92206 31.5517 6.78856 31.3843 6.62093C31.217 6.4533 31.0848 6.25483 30.9954 6.03687C30.906 5.81891 30.861 5.58573 30.8632 5.35066C30.8654 5.11559 30.9146 4.88325 31.008 4.66692L31.0098 4.66871Z" stroke="#1D1D1D"/>
</svg>
