<svg width="127" height="141" viewBox="0 0 127 141" fill="none" xmlns="http://www.w3.org/2000/svg">
<path id="Vector" d="M5 128.451V114.734C5 107.458 8.08179 100.481 13.5674 95.3358C19.053 90.191 26.4931 87.3007 34.251 87.3007H37.9074M19.6255 32.4336C19.6255 39.7094 22.7073 46.6872 28.1929 51.832C33.6785 56.9768 41.1186 59.8671 48.8765 59.8671C56.6343 59.8671 64.0744 56.9768 69.56 51.832C75.0457 46.6872 78.1275 39.7094 78.1275 32.4336C78.1275 25.1577 75.0457 18.1799 69.56 13.0351C64.0744 7.89031 56.6343 5 48.8765 5C41.1186 5 33.6785 7.89031 28.1929 13.0351C22.7073 18.1799 19.6255 25.1577 19.6255 32.4336ZM91.2904 127.196L75.4071 135.001C74.9357 135.231 74.4055 135.334 73.8755 135.297C73.3455 135.261 72.8367 135.088 72.4059 134.796C71.975 134.504 71.6391 134.106 71.4356 133.646C71.2321 133.185 71.169 132.681 71.2534 132.189L74.2882 115.653L61.4397 103.946C61.0562 103.598 60.7847 103.157 60.6561 102.671C60.5275 102.185 60.5471 101.676 60.7126 101.2C60.878 100.725 61.1828 100.302 61.5919 99.9814C62.0011 99.6604 62.4982 99.4539 63.0266 99.3852L80.782 96.9711L88.7236 81.9306C88.9611 81.4827 89.3272 81.1057 89.7806 80.8423C90.2341 80.5788 90.7569 80.4392 91.2904 80.4392C91.8238 80.4392 92.3466 80.5788 92.8001 80.8423C93.2536 81.1057 93.6196 81.4827 93.8571 81.9306L101.799 96.9711L119.554 99.3852C120.081 99.4563 120.576 99.6642 120.983 99.9855C121.391 100.307 121.694 100.728 121.859 101.203C122.024 101.678 122.045 102.186 121.918 102.671C121.791 103.155 121.522 103.597 121.141 103.946L108.292 115.653L111.32 132.182C111.411 132.675 111.353 133.182 111.152 133.645C110.951 134.109 110.615 134.51 110.184 134.803C109.752 135.097 109.241 135.271 108.709 135.306C108.177 135.341 107.645 135.235 107.174 135.001L91.2904 127.196Z" stroke="#E3E3E3" stroke-width="10" stroke-linecap="round" stroke-linejoin="round"/>
</svg>
